<?xml version="1.0" encoding="UTF-8"?>
<svg xmlns="http://www.w3.org/2000/svg" version="1.1" width="200" height="200" viewBox="0 0 200 200"><rect x="0" y="0" width="200" height="200" fill="#ffffff"/><g transform="scale(6.897)"><g transform="translate(0,0)"><path fill-rule="evenodd" d="M9 0L9 1L8 1L8 3L9 3L9 1L10 1L10 3L11 3L11 4L10 4L10 5L12 5L12 7L11 7L11 6L10 6L10 7L9 7L9 4L8 4L8 8L6 8L6 9L8 9L8 8L9 8L9 9L10 9L10 11L9 11L9 10L8 10L8 11L9 11L9 12L6 12L6 11L7 11L7 10L6 10L6 11L5 11L5 12L4 12L4 14L5 14L5 15L3 15L3 18L2 18L2 17L1 17L1 18L0 18L0 19L1 19L1 18L2 18L2 19L3 19L3 21L4 21L4 20L6 20L6 21L8 21L8 23L9 23L9 25L8 25L8 26L9 26L9 27L8 27L8 29L10 29L10 28L9 28L9 27L10 27L10 26L11 26L11 29L13 29L13 28L14 28L14 29L15 29L15 28L14 28L14 26L11 26L11 25L10 25L10 23L11 23L11 24L12 24L12 25L16 25L16 27L17 27L17 29L19 29L19 28L20 28L20 29L23 29L23 28L24 28L24 29L25 29L25 28L26 28L26 26L25 26L25 25L26 25L26 24L27 24L27 25L29 25L29 24L27 24L27 23L28 23L28 22L29 22L29 21L28 21L28 22L27 22L27 23L26 23L26 21L27 21L27 20L26 20L26 21L25 21L25 20L24 20L24 19L23 19L23 20L22 20L22 18L23 18L23 17L22 17L22 16L21 16L21 15L19 15L19 16L20 16L20 17L21 17L21 20L20 20L20 21L17 21L17 20L19 20L19 18L18 18L18 19L17 19L17 18L16 18L16 21L17 21L17 23L18 23L18 24L17 24L17 25L16 25L16 24L15 24L15 23L13 23L13 22L15 22L15 21L14 21L14 20L13 20L13 21L12 21L12 20L11 20L11 21L10 21L10 19L11 19L11 18L14 18L14 19L15 19L15 18L14 18L14 17L15 17L15 14L14 14L14 13L15 13L15 12L16 12L16 11L15 11L15 12L14 12L14 10L15 10L15 9L14 9L14 8L12 8L12 7L13 7L13 6L14 6L14 7L15 7L15 6L16 6L16 8L20 8L20 10L19 10L19 9L17 9L17 11L20 11L20 10L21 10L21 13L20 13L20 12L19 12L19 13L18 13L18 12L17 12L17 13L16 13L16 15L17 15L17 16L16 16L16 17L18 17L18 15L17 15L17 14L19 14L19 13L20 13L20 14L22 14L22 15L24 15L24 16L26 16L26 15L27 15L27 16L29 16L29 14L28 14L28 13L27 13L27 14L26 14L26 15L25 15L25 14L24 14L24 13L23 13L23 12L22 12L22 10L23 10L23 9L25 9L25 8L22 8L22 10L21 10L21 8L20 8L20 7L21 7L21 5L19 5L19 4L20 4L20 3L21 3L21 1L20 1L20 0L19 0L19 1L20 1L20 3L18 3L18 2L16 2L16 1L17 1L17 0L11 0L11 1L10 1L10 0ZM12 1L12 2L11 2L11 3L12 3L12 4L14 4L14 5L15 5L15 3L16 3L16 2L15 2L15 3L14 3L14 1ZM12 2L12 3L13 3L13 2ZM17 3L17 4L16 4L16 6L17 6L17 7L18 7L18 3ZM19 6L19 7L20 7L20 6ZM0 8L0 10L1 10L1 12L3 12L3 9L4 9L4 10L5 10L5 9L4 9L4 8L3 8L3 9L2 9L2 8ZM10 8L10 9L11 9L11 11L12 11L12 12L11 12L11 14L9 14L9 16L8 16L8 15L5 15L5 16L4 16L4 18L3 18L3 19L5 19L5 18L7 18L7 19L6 19L6 20L8 20L8 21L9 21L9 23L10 23L10 21L9 21L9 20L8 20L8 19L9 19L9 18L11 18L11 17L12 17L12 16L10 16L10 15L11 15L11 14L12 14L12 15L14 15L14 14L12 14L12 13L13 13L13 10L12 10L12 8ZM26 8L26 9L27 9L27 10L25 10L25 12L27 12L27 11L28 11L28 10L29 10L29 9L28 9L28 8ZM9 12L9 13L10 13L10 12ZM1 13L1 14L2 14L2 13ZM6 13L6 14L7 14L7 13ZM22 13L22 14L23 14L23 13ZM0 15L0 16L2 16L2 15ZM6 16L6 17L8 17L8 16ZM13 16L13 17L14 17L14 16ZM25 17L25 18L26 18L26 17ZM27 17L27 18L28 18L28 19L29 19L29 17ZM0 20L0 21L1 21L1 20ZM11 21L11 23L12 23L12 24L13 24L13 23L12 23L12 21ZM21 21L21 24L24 24L24 21ZM19 22L19 24L18 24L18 25L17 25L17 26L19 26L19 25L20 25L20 22ZM22 22L22 23L23 23L23 22ZM9 25L9 26L10 26L10 25ZM21 25L21 26L20 26L20 27L21 27L21 28L23 28L23 26L22 26L22 25ZM28 26L28 27L27 27L27 29L28 29L28 27L29 27L29 26ZM0 0L0 7L7 7L7 0ZM1 1L1 6L6 6L6 1ZM2 2L2 5L5 5L5 2ZM22 0L22 7L29 7L29 0ZM23 1L23 6L28 6L28 1ZM24 2L24 5L27 5L27 2ZM0 22L0 29L7 29L7 22ZM1 23L1 28L6 28L6 23ZM2 24L2 27L5 27L5 24Z" fill="#000000"/></g></g></svg>
