<?xml version="1.0" encoding="UTF-8"?>
<svg xmlns="http://www.w3.org/2000/svg" version="1.1" width="200" height="200" viewBox="0 0 200 200"><rect x="0" y="0" width="200" height="200" fill="#ffffff"/><g transform="scale(6.897)"><g transform="translate(0,0)"><path fill-rule="evenodd" d="M8 0L8 1L9 1L9 2L8 2L8 5L9 5L9 2L10 2L10 3L12 3L12 4L14 4L14 3L15 3L15 5L16 5L16 7L15 7L15 6L14 6L14 5L12 5L12 7L11 7L11 4L10 4L10 8L8 8L8 9L7 9L7 8L6 8L6 9L7 9L7 10L6 10L6 11L5 11L5 9L4 9L4 8L0 8L0 10L1 10L1 11L0 11L0 12L1 12L1 11L3 11L3 12L2 12L2 13L3 13L3 12L4 12L4 16L5 16L5 17L7 17L7 16L5 16L5 12L6 12L6 13L7 13L7 14L6 14L6 15L7 15L7 14L8 14L8 13L10 13L10 12L6 12L6 11L9 11L9 10L8 10L8 9L10 9L10 11L11 11L11 12L12 12L12 11L13 11L13 13L12 13L12 15L14 15L14 16L13 16L13 17L12 17L12 16L11 16L11 14L9 14L9 15L8 15L8 18L6 18L6 19L5 19L5 18L4 18L4 17L3 17L3 18L2 18L2 15L3 15L3 14L2 14L2 15L1 15L1 16L0 16L0 17L1 17L1 18L0 18L0 19L1 19L1 18L2 18L2 20L1 20L1 21L5 21L5 20L6 20L6 21L7 21L7 20L6 20L6 19L8 19L8 22L9 22L9 23L11 23L11 24L10 24L10 26L9 26L9 25L8 25L8 29L11 29L11 27L10 27L10 26L11 26L11 24L12 24L12 25L14 25L14 26L16 26L16 27L17 27L17 26L16 26L16 25L18 25L18 24L19 24L19 23L20 23L20 25L19 25L19 26L20 26L20 25L21 25L21 26L22 26L22 25L23 25L23 26L25 26L25 27L23 27L23 28L21 28L21 27L20 27L20 28L19 28L19 29L24 29L24 28L25 28L25 29L26 29L26 28L25 28L25 27L27 27L27 29L28 29L28 27L29 27L29 25L27 25L27 24L29 24L29 23L28 23L28 22L29 22L29 21L28 21L28 22L27 22L27 24L26 24L26 23L25 23L25 21L27 21L27 20L29 20L29 19L28 19L28 18L27 18L27 17L26 17L26 16L24 16L24 15L23 15L23 14L24 14L24 13L22 13L22 15L23 15L23 17L25 17L25 18L26 18L26 20L24 20L24 19L23 19L23 18L22 18L22 20L21 20L21 17L22 17L22 16L21 16L21 15L20 15L20 14L19 14L19 13L21 13L21 11L22 11L22 12L23 12L23 11L25 11L25 12L26 12L26 14L25 14L25 15L27 15L27 16L29 16L29 11L28 11L28 10L29 10L29 8L28 8L28 9L27 9L27 8L24 8L24 9L22 9L22 8L21 8L21 6L20 6L20 4L19 4L19 5L18 5L18 3L21 3L21 2L18 2L18 3L17 3L17 1L16 1L16 3L15 3L15 2L13 2L13 3L12 3L12 1L14 1L14 0L10 0L10 1L9 1L9 0ZM19 0L19 1L21 1L21 0ZM10 1L10 2L11 2L11 1ZM16 4L16 5L17 5L17 7L16 7L16 8L14 8L14 6L13 6L13 7L12 7L12 10L13 10L13 11L15 11L15 12L14 12L14 13L15 13L15 12L16 12L16 11L17 11L17 12L18 12L18 13L19 13L19 12L20 12L20 11L21 11L21 10L22 10L22 11L23 11L23 10L22 10L22 9L21 9L21 10L19 10L19 9L17 9L17 7L18 7L18 5L17 5L17 4ZM8 6L8 7L9 7L9 6ZM19 6L19 7L20 7L20 6ZM10 8L10 9L11 9L11 8ZM1 9L1 10L2 10L2 9ZM3 9L3 11L4 11L4 12L5 12L5 11L4 11L4 9ZM14 9L14 10L15 10L15 9ZM26 9L26 10L25 10L25 11L26 11L26 12L27 12L27 11L26 11L26 10L27 10L27 9ZM16 13L16 14L15 14L15 17L16 17L16 16L17 16L17 18L16 18L16 20L15 20L15 18L11 18L11 20L9 20L9 21L10 21L10 22L11 22L11 21L12 21L12 24L13 24L13 22L14 22L14 23L17 23L17 24L18 24L18 23L19 23L19 22L20 22L20 21L16 21L16 20L17 20L17 19L18 19L18 18L19 18L19 20L20 20L20 17L18 17L18 15L16 15L16 14L17 14L17 13ZM27 13L27 14L28 14L28 13ZM19 15L19 16L20 16L20 15ZM8 18L8 19L10 19L10 18ZM12 20L12 21L13 21L13 20ZM14 21L14 22L15 22L15 21ZM21 21L21 24L24 24L24 21ZM22 22L22 23L23 23L23 22ZM14 24L14 25L16 25L16 24ZM25 25L25 26L26 26L26 25ZM27 26L27 27L28 27L28 26ZM9 27L9 28L10 28L10 27ZM13 28L13 29L15 29L15 28ZM0 0L0 7L7 7L7 0ZM1 1L1 6L6 6L6 1ZM2 2L2 5L5 5L5 2ZM22 0L22 7L29 7L29 0ZM23 1L23 6L28 6L28 1ZM24 2L24 5L27 5L27 2ZM0 22L0 29L7 29L7 22ZM1 23L1 28L6 28L6 23ZM2 24L2 27L5 27L5 24Z" fill="#000000"/></g></g></svg>
