<?xml version="1.0" encoding="UTF-8"?>
<svg xmlns="http://www.w3.org/2000/svg" version="1.1" width="200" height="200" viewBox="0 0 200 200"><rect x="0" y="0" width="200" height="200" fill="#ffffff"/><g transform="scale(6.897)"><g transform="translate(0,0)"><path fill-rule="evenodd" d="M8 0L8 4L9 4L9 3L10 3L10 5L13 5L13 6L12 6L12 7L11 7L11 6L10 6L10 7L9 7L9 5L8 5L8 7L9 7L9 11L8 11L8 12L10 12L10 10L11 10L11 11L13 11L13 10L14 10L14 17L13 17L13 14L12 14L12 13L11 13L11 16L10 16L10 14L6 14L6 13L7 13L7 12L6 12L6 11L7 11L7 10L8 10L8 9L7 9L7 8L4 8L4 9L3 9L3 10L1 10L1 12L0 12L0 13L2 13L2 14L1 14L1 15L0 15L0 18L2 18L2 20L0 20L0 21L4 21L4 20L5 20L5 21L8 21L8 22L9 22L9 21L8 21L8 20L10 20L10 17L11 17L11 19L13 19L13 18L14 18L14 17L15 17L15 19L14 19L14 21L15 21L15 23L16 23L16 24L14 24L14 25L13 25L13 24L12 24L12 25L10 25L10 24L11 24L11 23L12 23L12 21L10 21L10 24L9 24L9 23L8 23L8 25L10 25L10 26L9 26L9 27L8 27L8 29L9 29L9 27L10 27L10 26L11 26L11 29L13 29L13 27L14 27L14 26L15 26L15 27L16 27L16 28L17 28L17 29L19 29L19 27L20 27L20 29L23 29L23 27L24 27L24 29L25 29L25 27L24 27L24 26L23 26L23 27L22 27L22 25L25 25L25 26L26 26L26 27L27 27L27 29L28 29L28 28L29 28L29 25L28 25L28 24L29 24L29 20L28 20L28 21L26 21L26 20L24 20L24 19L25 19L25 18L26 18L26 19L29 19L29 17L28 17L28 18L26 18L26 17L24 17L24 18L23 18L23 17L22 17L22 16L23 16L23 15L24 15L24 16L25 16L25 15L24 15L24 14L26 14L26 15L27 15L27 16L28 16L28 15L29 15L29 8L25 8L25 9L24 9L24 8L23 8L23 9L21 9L21 10L20 10L20 11L19 11L19 12L21 12L21 13L22 13L22 14L21 14L21 15L20 15L20 17L22 17L22 18L23 18L23 20L22 20L22 19L21 19L21 18L20 18L20 19L21 19L21 20L19 20L19 19L18 19L18 18L19 18L19 17L18 17L18 15L19 15L19 14L20 14L20 13L19 13L19 14L18 14L18 15L17 15L17 14L16 14L16 13L18 13L18 11L17 11L17 10L16 10L16 9L18 9L18 8L19 8L19 9L20 9L20 7L21 7L21 5L19 5L19 2L20 2L20 3L21 3L21 2L20 2L20 1L16 1L16 0L14 0L14 1L13 1L13 0ZM10 1L10 2L11 2L11 3L12 3L12 4L13 4L13 3L14 3L14 5L15 5L15 7L14 7L14 6L13 6L13 7L12 7L12 8L13 8L13 9L12 9L12 10L13 10L13 9L14 9L14 10L15 10L15 9L16 9L16 6L17 6L17 7L18 7L18 6L19 6L19 7L20 7L20 6L19 6L19 5L18 5L18 3L16 3L16 5L15 5L15 3L14 3L14 2L16 2L16 1L14 1L14 2L12 2L12 1ZM10 7L10 8L11 8L11 7ZM0 8L0 9L2 9L2 8ZM14 8L14 9L15 9L15 8ZM5 9L5 11L4 11L4 10L3 10L3 11L2 11L2 13L4 13L4 14L5 14L5 15L3 15L3 14L2 14L2 16L3 16L3 17L2 17L2 18L3 18L3 20L4 20L4 19L5 19L5 20L8 20L8 18L7 18L7 17L8 17L8 15L6 15L6 14L5 14L5 11L6 11L6 10L7 10L7 9ZM25 9L25 11L24 11L24 12L22 12L22 13L23 13L23 14L24 14L24 13L25 13L25 12L26 12L26 13L27 13L27 15L28 15L28 9L27 9L27 10L26 10L26 9ZM21 10L21 11L22 11L22 10ZM15 12L15 13L16 13L16 12ZM5 15L5 16L6 16L6 17L7 17L7 16L6 16L6 15ZM15 15L15 17L16 17L16 18L18 18L18 17L16 17L16 15ZM21 15L21 16L22 16L22 15ZM11 16L11 17L12 17L12 18L13 18L13 17L12 17L12 16ZM4 17L4 18L5 18L5 19L7 19L7 18L5 18L5 17ZM15 19L15 21L16 21L16 22L17 22L17 23L19 23L19 20L18 20L18 21L17 21L17 20L16 20L16 19ZM21 21L21 24L24 24L24 21ZM22 22L22 23L23 23L23 22ZM25 22L25 25L27 25L27 24L28 24L28 22L27 22L27 23L26 23L26 22ZM18 24L18 25L19 25L19 26L18 26L18 27L19 27L19 26L20 26L20 27L21 27L21 28L22 28L22 27L21 27L21 25L19 25L19 24ZM16 25L16 26L17 26L17 25ZM12 26L12 27L13 27L13 26ZM14 28L14 29L15 29L15 28ZM0 0L0 7L7 7L7 0ZM1 1L1 6L6 6L6 1ZM2 2L2 5L5 5L5 2ZM22 0L22 7L29 7L29 0ZM23 1L23 6L28 6L28 1ZM24 2L24 5L27 5L27 2ZM0 22L0 29L7 29L7 22ZM1 23L1 28L6 28L6 23ZM2 24L2 27L5 27L5 24Z" fill="#000000"/></g></g></svg>
