<?xml version="1.0" encoding="UTF-8"?>
<svg xmlns="http://www.w3.org/2000/svg" version="1.1" width="200" height="200" viewBox="0 0 200 200"><rect x="0" y="0" width="200" height="200" fill="#ffffff"/><g transform="scale(6.897)"><g transform="translate(0,0)"><path fill-rule="evenodd" d="M10 0L10 1L12 1L12 2L11 2L11 3L12 3L12 4L9 4L9 3L10 3L10 2L9 2L9 1L8 1L8 2L9 2L9 3L8 3L8 4L9 4L9 5L8 5L8 7L9 7L9 8L6 8L6 9L5 9L5 8L0 8L0 10L1 10L1 11L0 11L0 12L1 12L1 15L2 15L2 16L3 16L3 20L2 20L2 21L5 21L5 20L4 20L4 19L5 19L5 18L6 18L6 19L8 19L8 18L9 18L9 16L11 16L11 15L8 15L8 17L7 17L7 16L6 16L6 15L7 15L7 14L10 14L10 12L13 12L13 14L14 14L14 16L12 16L12 17L11 17L11 18L10 18L10 19L9 19L9 20L6 20L6 21L8 21L8 23L9 23L9 24L8 24L8 29L10 29L10 27L11 27L11 26L12 26L12 27L14 27L14 26L13 26L13 25L14 25L14 24L15 24L15 23L16 23L16 22L15 22L15 21L16 21L16 20L15 20L15 21L14 21L14 20L13 20L13 19L11 19L11 18L12 18L12 17L14 17L14 18L15 18L15 19L16 19L16 18L15 18L15 17L18 17L18 19L19 19L19 18L20 18L20 19L21 19L21 20L20 20L20 22L17 22L17 23L19 23L19 24L20 24L20 25L18 25L18 24L16 24L16 25L17 25L17 26L18 26L18 27L20 27L20 28L17 28L17 29L20 29L20 28L21 28L21 27L23 27L23 28L22 28L22 29L27 29L27 28L28 28L28 26L29 26L29 25L28 25L28 26L27 26L27 28L24 28L24 27L26 27L26 26L24 26L24 27L23 27L23 26L21 26L21 25L27 25L27 24L25 24L25 19L24 19L24 20L23 20L23 17L20 17L20 16L21 16L21 15L22 15L22 14L23 14L23 13L21 13L21 12L22 12L22 11L21 11L21 9L22 9L22 10L26 10L26 8L25 8L25 9L24 9L24 8L23 8L23 9L22 9L22 8L20 8L20 7L21 7L21 6L20 6L20 7L19 7L19 6L18 6L18 7L19 7L19 8L20 8L20 9L19 9L19 10L17 10L17 11L18 11L18 12L16 12L16 10L15 10L15 9L18 9L18 8L15 8L15 9L14 9L14 8L13 8L13 6L12 6L12 8L10 8L10 7L11 7L11 6L10 6L10 7L9 7L9 5L13 5L13 4L14 4L14 5L15 5L15 6L14 6L14 7L15 7L15 6L16 6L16 7L17 7L17 6L16 6L16 5L15 5L15 4L18 4L18 5L21 5L21 4L18 4L18 3L16 3L16 2L19 2L19 1L20 1L20 3L21 3L21 0L19 0L19 1L14 1L14 0ZM13 1L13 3L14 3L14 4L15 4L15 3L14 3L14 1ZM9 8L9 9L8 9L8 10L7 10L7 9L6 9L6 10L7 10L7 11L5 11L5 9L4 9L4 11L5 11L5 12L4 12L4 13L2 13L2 15L3 15L3 14L4 14L4 13L6 13L6 14L5 14L5 15L4 15L4 16L5 16L5 17L6 17L6 18L7 18L7 17L6 17L6 16L5 16L5 15L6 15L6 14L7 14L7 13L9 13L9 12L7 12L7 11L9 11L9 10L10 10L10 8ZM27 8L27 10L29 10L29 9L28 9L28 8ZM2 9L2 10L3 10L3 9ZM12 9L12 10L11 10L11 11L13 11L13 12L14 12L14 14L16 14L16 15L15 15L15 16L14 16L14 17L15 17L15 16L18 16L18 17L19 17L19 16L20 16L20 15L21 15L21 14L20 14L20 13L19 13L19 12L18 12L18 13L15 13L15 12L14 12L14 9ZM19 10L19 11L20 11L20 10ZM24 11L24 12L25 12L25 11ZM6 12L6 13L7 13L7 12ZM26 12L26 13L27 13L27 14L26 14L26 15L27 15L27 16L25 16L25 17L24 17L24 18L25 18L25 17L26 17L26 19L28 19L28 20L26 20L26 21L28 21L28 22L29 22L29 19L28 19L28 18L29 18L29 17L28 17L28 16L29 16L29 15L27 15L27 14L29 14L29 12ZM11 13L11 14L12 14L12 13ZM24 13L24 15L23 15L23 16L24 16L24 15L25 15L25 13ZM17 14L17 15L18 15L18 16L19 16L19 15L18 15L18 14ZM0 17L0 21L1 21L1 17ZM21 18L21 19L22 19L22 18ZM10 19L10 20L9 20L9 22L10 22L10 23L12 23L12 22L14 22L14 21L13 21L13 20L11 20L11 19ZM10 20L10 21L11 21L11 22L12 22L12 21L11 21L11 20ZM17 20L17 21L18 21L18 20ZM21 21L21 24L24 24L24 21ZM22 22L22 23L23 23L23 22ZM26 22L26 23L27 23L27 22ZM13 23L13 24L14 24L14 23ZM10 24L10 25L9 25L9 27L10 27L10 25L12 25L12 24ZM15 26L15 27L16 27L16 26ZM20 26L20 27L21 27L21 26ZM11 28L11 29L14 29L14 28ZM15 28L15 29L16 29L16 28ZM0 0L0 7L7 7L7 0ZM1 1L1 6L6 6L6 1ZM2 2L2 5L5 5L5 2ZM22 0L22 7L29 7L29 0ZM23 1L23 6L28 6L28 1ZM24 2L24 5L27 5L27 2ZM0 22L0 29L7 29L7 22ZM1 23L1 28L6 28L6 23ZM2 24L2 27L5 27L5 24Z" fill="#000000"/></g></g></svg>
