<?xml version="1.0" encoding="UTF-8"?>
<svg xmlns="http://www.w3.org/2000/svg" version="1.1" width="200" height="200" viewBox="0 0 200 200"><rect x="0" y="0" width="200" height="200" fill="#ffffff"/><g transform="scale(6.897)"><g transform="translate(0,0)"><path fill-rule="evenodd" d="M9 0L9 1L8 1L8 2L9 2L9 3L8 3L8 4L9 4L9 3L10 3L10 5L8 5L8 7L9 7L9 8L6 8L6 9L7 9L7 10L4 10L4 9L5 9L5 8L0 8L0 9L1 9L1 10L2 10L2 12L3 12L3 10L4 10L4 11L5 11L5 12L6 12L6 13L7 13L7 14L5 14L5 15L7 15L7 14L9 14L9 13L11 13L11 14L10 14L10 15L8 15L8 16L6 16L6 17L5 17L5 18L6 18L6 19L5 19L5 20L4 20L4 21L5 21L5 20L6 20L6 21L8 21L8 23L9 23L9 24L8 24L8 29L11 29L11 28L12 28L12 29L14 29L14 28L13 28L13 26L14 26L14 27L16 27L16 26L14 26L14 24L13 24L13 23L14 23L14 22L13 22L13 23L11 23L11 22L12 22L12 21L14 21L14 20L15 20L15 21L17 21L17 22L18 22L18 23L19 23L19 24L17 24L17 25L18 25L18 26L17 26L17 27L18 27L18 28L16 28L16 29L20 29L20 28L21 28L21 27L23 27L23 26L21 26L21 27L20 27L20 28L19 28L19 26L20 26L20 25L25 25L25 26L24 26L24 27L25 27L25 26L26 26L26 27L27 27L27 28L26 28L26 29L27 29L27 28L28 28L28 26L29 26L29 25L28 25L28 26L26 26L26 25L27 25L27 24L28 24L28 23L27 23L27 22L26 22L26 23L27 23L27 24L25 24L25 20L24 20L24 19L25 19L25 17L26 17L26 19L28 19L28 20L26 20L26 21L28 21L28 22L29 22L29 19L28 19L28 18L29 18L29 17L28 17L28 16L29 16L29 15L27 15L27 14L29 14L29 12L26 12L26 13L27 13L27 14L26 14L26 15L27 15L27 16L25 16L25 15L24 15L24 16L25 16L25 17L24 17L24 19L22 19L22 20L21 20L21 19L20 19L20 20L19 20L19 21L18 21L18 20L15 20L15 19L16 19L16 18L15 18L15 17L18 17L18 16L16 16L16 14L15 14L15 13L18 13L18 15L19 15L19 17L20 17L20 18L23 18L23 17L21 17L21 16L23 16L23 14L25 14L25 13L24 13L24 12L25 12L25 10L26 10L26 8L25 8L25 9L24 9L24 8L23 8L23 9L22 9L22 8L21 8L21 3L20 3L20 2L21 2L21 0L18 0L18 1L20 1L20 2L19 2L19 3L20 3L20 4L19 4L19 5L15 5L15 4L14 4L14 3L13 3L13 0ZM14 0L14 1L15 1L15 3L17 3L17 4L18 4L18 3L17 3L17 1L15 1L15 0ZM9 1L9 2L10 2L10 3L11 3L11 2L12 2L12 1ZM12 3L12 4L13 4L13 5L14 5L14 6L13 6L13 8L14 8L14 10L11 10L11 9L12 9L12 8L10 8L10 9L8 9L8 10L9 10L9 11L6 11L6 12L12 12L12 11L13 11L13 12L14 12L14 13L12 13L12 14L11 14L11 15L13 15L13 16L11 16L11 17L10 17L10 18L11 18L11 19L10 19L10 20L9 20L9 18L8 18L8 17L9 17L9 16L8 16L8 17L6 17L6 18L7 18L7 19L6 19L6 20L8 20L8 21L10 21L10 22L11 22L11 21L12 21L12 20L14 20L14 19L15 19L15 18L14 18L14 17L15 17L15 14L14 14L14 13L15 13L15 12L18 12L18 13L20 13L20 12L21 12L21 13L23 13L23 11L24 11L24 10L22 10L22 11L21 11L21 10L19 10L19 9L21 9L21 8L20 8L20 5L19 5L19 8L18 8L18 6L17 6L17 7L16 7L16 6L15 6L15 5L14 5L14 4L13 4L13 3ZM11 5L11 7L12 7L12 5ZM9 6L9 7L10 7L10 6ZM14 6L14 8L15 8L15 9L18 9L18 8L16 8L16 7L15 7L15 6ZM27 8L27 10L29 10L29 9L28 9L28 8ZM10 10L10 11L11 11L11 10ZM14 10L14 12L15 12L15 11L16 11L16 10ZM17 10L17 11L18 11L18 12L20 12L20 11L18 11L18 10ZM0 11L0 14L1 14L1 11ZM2 13L2 15L4 15L4 13ZM13 14L13 15L14 15L14 14ZM19 14L19 15L20 15L20 14ZM21 14L21 15L22 15L22 14ZM0 15L0 21L1 21L1 18L3 18L3 17L2 17L2 16L1 16L1 15ZM13 16L13 17L14 17L14 16ZM11 17L11 18L12 18L12 17ZM17 18L17 19L19 19L19 18ZM2 19L2 20L3 20L3 19ZM19 21L19 22L20 22L20 21ZM21 21L21 24L24 24L24 21ZM15 22L15 23L16 23L16 22ZM22 22L22 23L23 23L23 22ZM10 23L10 24L9 24L9 26L11 26L11 27L12 27L12 26L13 26L13 24L11 24L11 23ZM15 24L15 25L16 25L16 24ZM19 24L19 25L20 25L20 24ZM11 25L11 26L12 26L12 25ZM22 28L22 29L23 29L23 28ZM24 28L24 29L25 29L25 28ZM0 0L0 7L7 7L7 0ZM1 1L1 6L6 6L6 1ZM2 2L2 5L5 5L5 2ZM22 0L22 7L29 7L29 0ZM23 1L23 6L28 6L28 1ZM24 2L24 5L27 5L27 2ZM0 22L0 29L7 29L7 22ZM1 23L1 28L6 28L6 23ZM2 24L2 27L5 27L5 24Z" fill="#000000"/></g></g></svg>
