<?xml version="1.0" encoding="UTF-8"?>
<svg xmlns="http://www.w3.org/2000/svg" version="1.1" width="200" height="200" viewBox="0 0 200 200"><rect x="0" y="0" width="200" height="200" fill="#ffffff"/><g transform="scale(6.897)"><g transform="translate(0,0)"><path fill-rule="evenodd" d="M8 0L8 1L9 1L9 5L10 5L10 8L11 8L11 10L10 10L10 9L8 9L8 10L6 10L6 9L7 9L7 8L6 8L6 9L5 9L5 8L3 8L3 9L2 9L2 8L0 8L0 12L1 12L1 14L0 14L0 15L1 15L1 16L2 16L2 17L0 17L0 21L2 21L2 20L3 20L3 21L7 21L7 20L8 20L8 22L9 22L9 24L8 24L8 26L9 26L9 27L8 27L8 29L9 29L9 28L10 28L10 29L11 29L11 28L10 28L10 26L12 26L12 27L13 27L13 26L15 26L15 27L14 27L14 28L12 28L12 29L16 29L16 28L17 28L17 26L18 26L18 27L19 27L19 25L21 25L21 28L18 28L18 29L21 29L21 28L22 28L22 29L23 29L23 27L22 27L22 25L25 25L25 26L24 26L24 29L26 29L26 28L27 28L27 27L28 27L28 28L29 28L29 23L27 23L27 24L28 24L28 25L25 25L25 21L26 21L26 22L28 22L28 20L29 20L29 18L27 18L27 17L28 17L28 16L27 16L27 13L28 13L28 15L29 15L29 13L28 13L28 12L29 12L29 11L27 11L27 9L23 9L23 8L22 8L22 9L21 9L21 6L20 6L20 8L19 8L19 10L18 10L18 11L16 11L16 10L17 10L17 9L18 9L18 8L17 8L17 9L16 9L16 7L17 7L17 6L18 6L18 7L19 7L19 6L18 6L18 5L20 5L20 4L21 4L21 2L20 2L20 1L18 1L18 0L16 0L16 2L14 2L14 1L15 1L15 0L14 0L14 1L13 1L13 0L12 0L12 2L10 2L10 1L9 1L9 0ZM17 2L17 3L15 3L15 4L13 4L13 5L12 5L12 3L11 3L11 5L12 5L12 6L11 6L11 8L12 8L12 6L13 6L13 7L14 7L14 6L15 6L15 7L16 7L16 5L17 5L17 3L18 3L18 4L20 4L20 3L19 3L19 2ZM8 6L8 8L9 8L9 6ZM13 8L13 9L12 9L12 11L8 11L8 13L6 13L6 12L7 12L7 11L6 11L6 10L5 10L5 11L4 11L4 9L3 9L3 10L2 10L2 9L1 9L1 10L2 10L2 11L1 11L1 12L2 12L2 11L3 11L3 13L2 13L2 15L3 15L3 16L8 16L8 17L9 17L9 15L8 15L8 13L9 13L9 14L11 14L11 15L10 15L10 18L12 18L12 19L13 19L13 18L14 18L14 17L11 17L11 16L15 16L15 15L13 15L13 14L14 14L14 11L15 11L15 12L16 12L16 14L18 14L18 15L17 15L17 17L19 17L19 16L21 16L21 18L20 18L20 19L21 19L21 20L22 20L22 19L23 19L23 20L24 20L24 19L25 19L25 18L26 18L26 19L27 19L27 18L26 18L26 17L27 17L27 16L26 16L26 15L24 15L24 13L25 13L25 12L26 12L26 13L27 13L27 11L26 11L26 10L24 10L24 11L25 11L25 12L24 12L24 13L23 13L23 15L24 15L24 17L25 17L25 18L24 18L24 19L23 19L23 16L21 16L21 14L22 14L22 11L23 11L23 9L22 9L22 10L21 10L21 9L20 9L20 10L19 10L19 11L21 11L21 12L16 12L16 11L15 11L15 8ZM28 8L28 9L29 9L29 8ZM5 11L5 12L6 12L6 11ZM12 11L12 12L9 12L9 13L11 13L11 14L12 14L12 12L13 12L13 11ZM3 13L3 14L4 14L4 15L7 15L7 14L5 14L5 13ZM19 13L19 15L18 15L18 16L19 16L19 15L20 15L20 13ZM25 16L25 17L26 17L26 16ZM5 17L5 19L4 19L4 18L3 18L3 20L7 20L7 19L6 19L6 18L7 18L7 17ZM8 18L8 20L9 20L9 22L10 22L10 24L9 24L9 26L10 26L10 24L12 24L12 23L11 23L11 21L12 21L12 22L14 22L14 23L13 23L13 25L14 25L14 23L15 23L15 19L14 19L14 20L9 20L9 18ZM16 19L16 20L18 20L18 21L17 21L17 22L16 22L16 23L18 23L18 24L15 24L15 25L16 25L16 26L17 26L17 25L19 25L19 23L18 23L18 22L20 22L20 21L19 21L19 19ZM21 21L21 24L24 24L24 21ZM22 22L22 23L23 23L23 22ZM25 27L25 28L26 28L26 27ZM0 0L0 7L7 7L7 0ZM1 1L1 6L6 6L6 1ZM2 2L2 5L5 5L5 2ZM22 0L22 7L29 7L29 0ZM23 1L23 6L28 6L28 1ZM24 2L24 5L27 5L27 2ZM0 22L0 29L7 29L7 22ZM1 23L1 28L6 28L6 23ZM2 24L2 27L5 27L5 24Z" fill="#000000"/></g></g></svg>
